<svg xmlns="http://www.w3.org/2000/svg" xmlns:xlink="http://www.w3.org/1999/xlink" width="52" height="52" viewBox="0 0 52 52">
    <defs>
        <path id="b" d="M16 0C7.163 0 0 7.163 0 16s7.163 16 16 16 16-7.163 16-16A16 16 0 0 0 16 0z"/>
        <filter id="a" width="200%" height="200%" x="-50%" y="-46.9%" filterUnits="objectBoundingBox">
            <feMorphology in="SourceAlpha" operator="dilate" radius=".5" result="shadowSpreadOuter1"/>
            <feOffset dy="1" in="shadowSpreadOuter1" result="shadowOffsetOuter1"/>
            <feGaussianBlur in="shadowOffsetOuter1" result="shadowBlurOuter1" stdDeviation="5"/>
            <feComposite in="shadowBlurOuter1" in2="SourceAlpha" operator="out" result="shadowBlurOuter1"/>
            <feColorMatrix in="shadowBlurOuter1" values="0 0 0 0 0 0 0 0 0 0 0 0 0 0 0 0 0 0 0.2 0"/>
        </filter>
    </defs>
    <g fill="none" fill-rule="evenodd">
        <g fill-rule="nonzero" transform="translate(10 9)">
            <use fill="#000" filter="url(#a)" xlink:href="#b"/>
            <use fill="#FFF" stroke="#005596" xlink:href="#b"/>
        </g>
        <path fill="#005596" d="M25.707 16.293a1 1 0 0 1 0 1.414L19.414 24H35a1 1 0 0 1 0 2H19.414l6.293 6.293a1 1 0 0 1-1.414 1.414l-8-8a1 1 0 0 1 0-1.414l8-8a1 1 0 0 1 1.414 0z"/>
    </g>
</svg>
