<svg xmlns="http://www.w3.org/2000/svg" width="24" height="24" viewBox="0 0 24 24">
    <path fill="#FFF" fill-rule="nonzero" d="M6.856 16.977l2.58 2.265c-.17.456-.359.888-.569 1.33-.856-.102-1.693-.352-2.497-.663.034-.476.097-.965.173-1.438a8.91 8.91 0 0 1-1.476-.854c-.37.3-.756.59-1.156.866a10.022 10.022 0 0 1-1.822-1.823c.276-.402.566-.788.867-1.158a9.05 9.05 0 0 1-.852-1.475c-.475.077-.965.14-1.44.174C.35 13.397.1 12.56 0 11.703c.44-.21.872-.397 1.328-.567a8.983 8.983 0 0 1 .002-1.699C.873 9.267.44 9.077 0 8.868.101 8.01.35 7.174.663 6.37c.475.035.964.097 1.438.173a8.889 8.889 0 0 1 .853-1.476c-.3-.37-.59-.756-.865-1.156a9.983 9.983 0 0 1 1.822-1.822c.401.277.788.565 1.159.866.462-.329.956-.614 1.473-.851-.076-.475-.139-.966-.173-1.441C7.174.35 8.01.103 8.867 0c.21.44.398.872.569 1.328a8.962 8.962 0 0 1 1.698.001c.171-.456.36-.888.57-1.329.856.102 1.693.35 2.497.664-.034.474-.097.962-.173 1.436a8.943 8.943 0 0 1 1.476.853c.37-.3.756-.588 1.156-.864a9.98 9.98 0 0 1 1.822 1.822c-.276.4-.565.787-.866 1.158.33.463.615.957.852 1.475a16.79 16.79 0 0 1 1.44-.174c.313.804.561 1.64.663 2.498-.44.21-.873.398-1.327.568.04.437.049.882.024 1.33h-4.123a4.884 4.884 0 1 0-4.86 4.402c.37.001.729-.043 1.075-.121v1.93H6.856zm14.27.947V12H13.16v5.924h-2.875L17.143 24 24 17.924h-2.875z" opacity=".5"/>
</svg>
